<svg xmlns="http://www.w3.org/2000/svg" width="400" height="400" viewBox="0 0 400 400">
  <defs>
    <radialGradient id="vg" cx="50%" cy="45%" r="65%">
      <stop offset="0%" stop-color="#223052"></stop>
      <stop offset="100%" stop-color="#1A2540"></stop>
    </radialGradient>
  </defs>
  <rect width="400" height="400" fill="#1A2540"></rect>
  <rect width="400" height="400" fill="url(#vg)"></rect>
  <g transform="translate(40, 40) scale(8)">
    <line x1="8" y1="4" x2="8" y2="36" stroke="rgba(255,255,255,0.18)" stroke-width="0.4"></line><line x1="4" y1="8" x2="36" y2="8" stroke="rgba(255,255,255,0.18)" stroke-width="0.4"></line><line x1="16" y1="4" x2="16" y2="36" stroke="rgba(255,255,255,0.18)" stroke-width="0.4"></line><line x1="4" y1="16" x2="36" y2="16" stroke="rgba(255,255,255,0.18)" stroke-width="0.4"></line><line x1="24" y1="4" x2="24" y2="36" stroke="rgba(255,255,255,0.18)" stroke-width="0.4"></line><line x1="4" y1="24" x2="36" y2="24" stroke="rgba(255,255,255,0.18)" stroke-width="0.4"></line><line x1="32" y1="4" x2="32" y2="36" stroke="rgba(255,255,255,0.18)" stroke-width="0.4"></line><line x1="4" y1="32" x2="36" y2="32" stroke="rgba(255,255,255,0.18)" stroke-width="0.4"></line><line x1="4" y1="36" x2="34.4" y2="36" stroke="rgba(255,255,255,0.30)" stroke-width="0.8"></line><line x1="4" y1="36" x2="4" y2="5.6" stroke="rgba(255,255,255,0.30)" stroke-width="0.8"></line><polygon points="36,36 34.4,35.2 34.4,36.8" fill="rgba(255,255,255,0.78)"></polygon><polygon points="4,4 3.2,5.6 4.8,5.6" fill="rgba(255,255,255,0.78)"></polygon><circle cx="14.226" cy="8.448" r="1.093" fill="#D4A017"></circle><circle cx="14.213" cy="8.595" r="1.147" fill="#D4A017"></circle><circle cx="16.969" cy="8.048" r="0.899" fill="#D4A017"></circle><circle cx="17.627" cy="7.927" r="0.632" fill="#D4A017"></circle><circle cx="19.086" cy="8.641" r="0.297" fill="#D4A017"></circle><circle cx="20.769" cy="9.936" r="0.342" fill="#D4A017"></circle><circle cx="21.637" cy="9.877" r="0.555" fill="#D4A017"></circle><circle cx="24.846" cy="15.530" r="0.953" fill="#D4A017"></circle><circle cx="25.499" cy="17.454" r="1.059" fill="#D4A017"></circle><circle cx="26.046" cy="17.653" r="1.117" fill="#D4A017"></circle><circle cx="26.590" cy="19.756" r="1.690" fill="#D4A017"></circle><circle cx="24.479" cy="25.266" r="1.181" fill="#D4A017"></circle><circle cx="23.090" cy="27.613" r="1.789" fill="#D4A017"></circle><circle cx="22.807" cy="29.054" r="1.507" fill="#D4A017"></circle><circle cx="17.728" cy="31.890" r="0.337" fill="#D4A017"></circle><circle cx="15.938" cy="31.736" r="1.057" fill="#D4A017"></circle><circle cx="13.936" cy="32.354" r="1.366" fill="#D4A017"></circle><circle cx="13.445" cy="31.592" r="1.699" fill="#D4A017"></circle><circle cx="13.816" cy="31.434" r="1.758" fill="#D4A017"></circle><circle cx="13.871" cy="32.211" r="1.430" fill="#D4A017"></circle><circle cx="14.375" cy="32.457" r="1.273" fill="#D4A017"></circle><circle cx="14.446" cy="32.401" r="1.283" fill="#D4A017"></circle><circle cx="14.548" cy="32.697" r="1.151" fill="#D4A017"></circle><circle cx="14.015" cy="32.674" r="1.226" fill="#D4A017"></circle><circle cx="13.657" cy="32.401" r="1.358" fill="#D4A017"></circle><circle cx="14.066" cy="31.422" r="1.728" fill="#D4A017"></circle><circle cx="14.316" cy="31.288" r="1.718" fill="#D4A017"></circle><circle cx="14.569" cy="31.912" r="1.441" fill="#D4A017"></circle><circle cx="14.374" cy="31.722" r="1.553" fill="#D4A017"></circle><circle cx="13.719" cy="31.637" r="1.680" fill="#D4A017"></circle><circle cx="14.451" cy="31.409" r="1.642" fill="#D4A017"></circle><circle cx="13.913" cy="32.645" r="1.246" fill="#D4A017"></circle><circle cx="14.172" cy="31.337" r="1.737" fill="#D4A017"></circle><circle cx="14.084" cy="31.369" r="1.744" fill="#D4A017"></circle><circle cx="13.464" cy="31.806" r="1.609" fill="#D4A017"></circle><circle cx="14.115" cy="32.295" r="1.373" fill="#D4A017"></circle><circle cx="14.248" cy="32.270" r="1.366" fill="#D4A017"></circle><circle cx="13.805" cy="32.544" r="1.294" fill="#D4A017"></circle><circle cx="14.330" cy="32.128" r="1.409" fill="#D4A017"></circle><circle cx="14.553" cy="31.727" r="1.509" fill="#D4A017"></circle><circle cx="14.547" cy="32.473" r="1.238" fill="#D4A017"></circle><circle cx="14.425" cy="31.311" r="1.680" fill="#D4A017"></circle><circle cx="13.439" cy="31.648" r="1.675" fill="#D4A017"></circle><circle cx="14.129" cy="32.072" r="1.461" fill="#D4A017"></circle><circle cx="14.012" cy="31.753" r="1.605" fill="#D4A017"></circle><circle cx="14.026" cy="32.509" r="1.294" fill="#D4A017"></circle><circle cx="14.206" cy="7.568" r="0.701" fill="#D4A017"></circle><circle cx="15.106" cy="11.036" r="1.658" fill="#D4A017"></circle><circle cx="14.564" cy="12.996" r="0.601" fill="#D4A017"></circle><circle cx="14.730" cy="18.081" r="0.297" fill="#D4A017"></circle><circle cx="14.311" cy="19.539" r="0.297" fill="#D4A017"></circle><circle cx="14.953" cy="22.277" r="0.297" fill="#D4A017"></circle><circle cx="13.549" cy="25.803" r="0.297" fill="#D4A017"></circle><circle cx="14.251" cy="28.687" r="1.417" fill="#D4A017"></circle><circle cx="14.575" cy="29.837" r="1.715" fill="#D4A017"></circle><circle cx="14.606" cy="30.811" r="1.736" fill="#D4A017"></circle><circle cx="13.800" cy="31.980" r="1.531" fill="#D4A017"></circle><circle cx="13.994" cy="32.429" r="1.330" fill="#D4A017"></circle><circle cx="15.083" cy="31.968" r="1.286" fill="#D4A017"></circle><circle cx="15.211" cy="31.853" r="1.280" fill="#D4A017"></circle><circle cx="13.773" cy="32.098" r="1.483" fill="#D4A017"></circle><circle cx="13.855" cy="32.173" r="1.447" fill="#D4A017"></circle><circle cx="13.978" cy="32.325" r="1.374" fill="#D4A017"></circle><circle cx="14.474" cy="31.859" r="1.482" fill="#D4A017"></circle><circle cx="14.865" cy="31.662" r="1.443" fill="#D4A017"></circle><circle cx="14.043" cy="31.879" r="1.550" fill="#D4A017"></circle><circle cx="14.973" cy="32.017" r="1.302" fill="#D4A017"></circle><circle cx="13.606" cy="31.648" r="1.678" fill="#D4A017"></circle><circle cx="14.281" cy="31.728" r="1.571" fill="#D4A017"></circle><circle cx="14.141" cy="31.964" r="1.503" fill="#D4A017"></circle><circle cx="14.021" cy="32.435" r="1.325" fill="#D4A017"></circle><circle cx="13.564" cy="32.174" r="1.455" fill="#D4A017"></circle>
  </g>
</svg>